{
  "accessors": [
    {
      "bufferView": 2,
      "componentType": 5126,
      "count": 1024,
      "max": [
        3.996990203857422,
        2.328799247741699,
        2.1583311557769775
      ],
      "min": [
        -0.9502094984054565,
        -2.328799247741699,
        -2.3174612522125244
      ],
      "type": "VEC3"
    },
    {
      "bufferView": 2,
      "byteOffset": 12288,
      "componentType": 5126,
      "count": 1024,
      "max": [
        0.999990701675415,
        1.0,
        1.0
      ],
      "min": [
        -0.9964132905006409,
        -1.0,
        -1.0
      ],
      "type": "VEC3"
    },
    {
      "bufferView": 1,
      "componentType": 5126,
      "count": 1024,
      "max": [
        1.0,
        0.982812225818634
      ],
      "min": [
        -6.966836885169414e-09,
        -1.6822999659993343e-09
      ],
      "type": "VEC2"
    },
    {
      "bufferView": 0,
      "componentType": 5125,
      "count": 3336,
      "type": "SCALAR"
    }
  ],
  "asset": {
    "extras": {
      "author": "charlel (https://sketchfab.com/charlel2003)",
      "license": "CC-BY-4.0 (http://creativecommons.org/licenses/by/4.0/)",
      "source": "https://sketchfab.com/3d-models/crt-monitor-d65167cdb74a458e9931ba3f88f4b5e7",
      "title": "CRT Monitor"
    },
    "generator": "Sketchfab-16.64.0",
    "version": "2.0"
  },
  "bufferViews": [
    {
      "buffer": 0,
      "byteLength": 13344,
      "name": "floatBufferViews",
      "target": 34963
    },
    {
      "buffer": 0,
      "byteLength": 8192,
      "byteOffset": 13344,
      "byteStride": 8,
      "name": "floatBufferViews",
      "target": 34962
    },
    {
      "buffer": 0,
      "byteLength": 24576,
      "byteOffset": 21536,
      "byteStride": 12,
      "name": "floatBufferViews",
      "target": 34962
    }
  ],
  "buffers": [
    {
      "byteLength": 46112,
      "uri": "scene.bin"
    }
  ],
  "extensionsUsed": [
    "KHR_materials_specular"
  ],
  "images": [
    {
      "uri": "textures/Material.006_baseColor.png"
    }
  ],
  "materials": [
    {
      "doubleSided": true,
      "extensions": {
        "KHR_materials_specular": {
          "specularColorFactor": [
            1.0,
            1.0,
            1.0
          ],
          "specularFactor": 0.0
        }
      },
      "name": "Material.006",
      "pbrMetallicRoughness": {
        "baseColorTexture": {
          "index": 0
        },
        "metallicFactor": 0.0,
        "roughnessFactor": 0.37638209945020784
      }
    }
  ],
  "meshes": [
    {
      "name": "Cube.001_Material.006_0",
      "primitives": [
        {
          "attributes": {
            "NORMAL": 1,
            "POSITION": 0,
            "TEXCOORD_0": 2
          },
          "indices": 3,
          "material": 0,
          "mode": 4
        }
      ]
    }
  ],
  "nodes": [
    {
      "children": [
        1
      ],
      "matrix": [
        1.0,
        0.0,
        0.0,
        0.0,
        0.0,
        2.220446049250313e-16,
        -1.0,
        0.0,
        0.0,
        1.0,
        2.220446049250313e-16,
        0.0,
        0.0,
        0.0,
        0.0,
        1.0
      ],
      "name": "Sketchfab_model"
    },
    {
      "children": [
        2
      ],
      "matrix": [
        0.009999999776482582,
        0.0,
        0.0,
        0.0,
        0.0,
        0.0,
        0.009999999776482582,
        0.0,
        0.0,
        -0.009999999776482582,
        0.0,
        0.0,
        0.0,
        0.0,
        0.0,
        1.0
      ],
      "name": "a7f725b686aa46129e40dcf0a1b197c1.fbx"
    },
    {
      "children": [
        3
      ],
      "name": "RootNode"
    },
    {
      "children": [
        4
      ],
      "matrix": [
        99.39232069995174,
        11.007569480950076,
        -5.260346373769931e-07,
        0.0,
        -4.453061115674062e-08,
        -4.703366749253358e-06,
        -106.83448028564442,
        0.0,
        -11.57641287734391,
        104.52866486568881,
        -4.5970284095709115e-06,
        0.0,
        -198.29164123535156,
        201.1680908203125,
        -750.43017578125,
        1.0
      ],
      "name": "Cube.001"
    },
    {
      "mesh": 0,
      "name": "Cube.001_Material.006_0"
    }
  ],
  "samplers": [
    {
      "magFilter": 9729,
      "minFilter": 9987,
      "wrapS": 10497,
      "wrapT": 10497
    }
  ],
  "scene": 0,
  "scenes": [
    {
      "name": "Sketchfab_Scene",
      "nodes": [
        0
      ]
    }
  ],
  "textures": [
    {
      "sampler": 0,
      "source": 0
    }
  ]
}
