{
  "accessors": [
    {
      "bufferView": 2,
      "componentType": 5126,
      "count": 322,
      "max": [
        0.556896984577179,
        0.12420599907636642,
        1.0048270225524902
      ],
      "min": [
        0.4942069947719574,
        0.12291300296783447,
        0.9857820272445679
      ],
      "type": "VEC3"
    },
    {
      "bufferView": 2,
      "byteOffset": 3864,
      "componentType": 5126,
      "count": 322,
      "max": [
        0.34609925746917725,
        -0.9324110746383667,
        0.35158365964889526
      ],
      "min": [
        -0.34609925746917725,
        -1.0,
        -0.35158365964889526
      ],
      "type": "VEC3"
    },
    {
      "bufferView": 1,
      "componentType": 5126,
      "count": 322,
      "max": [
        0.0,
        0.0
      ],
      "min": [
        0.0,
        0.0
      ],
      "type": "VEC2"
    },
    {
      "bufferView": 0,
      "componentType": 5125,
      "count": 1512,
      "type": "SCALAR"
    },
    {
      "bufferView": 2,
      "byteOffset": 7728,
      "componentType": 5126,
      "count": 2575,
      "max": [
        0.5590239763259888,
        0.12861399352550507,
        1.0069539546966553
      ],
      "min": [
        0.4932909905910492,
        0.1235169991850853,
        0.9836540222167969
      ],
      "type": "VEC3"
    },
    {
      "bufferView": 2,
      "byteOffset": 38628,
      "componentType": 5126,
      "count": 2575,
      "max": [
        1.0,
        0.0,
        1.0
      ],
      "min": [
        -1.0,
        -0.9977918863296509,
        -1.0
      ],
      "type": "VEC3"
    },
    {
      "bufferView": 1,
      "byteOffset": 2576,
      "componentType": 5126,
      "count": 2575,
      "max": [
        0.0,
        0.0
      ],
      "min": [
        0.0,
        0.0
      ],
      "type": "VEC2"
    },
    {
      "bufferView": 0,
      "byteOffset": 6048,
      "componentType": 5125,
      "count": 4632,
      "type": "SCALAR"
    },
    {
      "bufferView": 2,
      "byteOffset": 69528,
      "componentType": 5126,
      "count": 2329,
      "max": [
        0.5822420120239258,
        0.15854300558567047,
        1.2244089841842651
      ],
      "min": [
        0.3802039921283722,
        0.1252799928188324,
        0.8432509899139404
      ],
      "type": "VEC3"
    },
    {
      "bufferView": 2,
      "byteOffset": 97476,
      "componentType": 5126,
      "count": 2329,
      "max": [
        1.0,
        1.0,
        1.0
      ],
      "min": [
        -1.0,
        -1.0,
        -1.0
      ],
      "type": "VEC3"
    },
    {
      "bufferView": 1,
      "byteOffset": 23176,
      "componentType": 5126,
      "count": 2329,
      "max": [
        0.5615289807319641,
        0.99760901927948
      ],
      "min": [
        0.45122000575065613,
        0.75239098072052
      ],
      "type": "VEC2"
    },
    {
      "bufferView": 0,
      "byteOffset": 24576,
      "componentType": 5125,
      "count": 9717,
      "type": "SCALAR"
    },
    {
      "bufferView": 2,
      "byteOffset": 125424,
      "componentType": 5126,
      "count": 179,
      "max": [
        0.13373999297618866,
        -0.03895999863743782,
        0.8816779851913452
      ],
      "min": [
        -0.18973499536514282,
        -0.20377099514007568,
        0.8443830013275146
      ],
      "type": "VEC3"
    },
    {
      "bufferView": 2,
      "byteOffset": 127572,
      "componentType": 5126,
      "count": 179,
      "max": [
        1.0,
        1.0,
        0.9993335008621216
      ],
      "min": [
        -1.0,
        -1.0,
        -1.0
      ],
      "type": "VEC3"
    },
    {
      "bufferView": 1,
      "byteOffset": 41808,
      "componentType": 5126,
      "count": 179,
      "max": [
        0.875,
        1.0
      ],
      "min": [
        0.125,
        0.0
      ],
      "type": "VEC2"
    },
    {
      "bufferView": 0,
      "byteOffset": 63444,
      "componentType": 5125,
      "count": 564,
      "type": "SCALAR"
    },
    {
      "bufferView": 2,
      "byteOffset": 129720,
      "componentType": 5126,
      "count": 289,
      "max": [
        0.13973399996757507,
        0.2499220073223114,
        1.1867120265960693
      ],
      "min": [
        -0.13973399996757507,
        0.20121300220489502,
        0.9492899775505066
      ],
      "type": "VEC3"
    },
    {
      "bufferView": 2,
      "byteOffset": 133188,
      "componentType": 5126,
      "count": 289,
      "max": [
        0.1800941824913025,
        -0.9342165589332581,
        0.3567063510417938
      ],
      "min": [
        -0.1800941824913025,
        -0.9998992681503296,
        -0.057502612471580505
      ],
      "type": "VEC3"
    },
    {
      "bufferView": 1,
      "byteOffset": 43240,
      "componentType": 5126,
      "count": 289,
      "max": [
        0.6093739867210388,
        0.9843739867210388
      ],
      "min": [
        0.3906260132789612,
        0.7656260132789612
      ],
      "type": "VEC2"
    },
    {
      "bufferView": 0,
      "byteOffset": 65700,
      "componentType": 5125,
      "count": 1536,
      "type": "SCALAR"
    },
    {
      "bufferView": 2,
      "byteOffset": 136656,
      "componentType": 5126,
      "count": 613,
      "max": [
        0.29511401057243347,
        -0.07482600212097168,
        0.8714290261268616
      ],
      "min": [
        0.24168500304222107,
        -0.177047997713089,
        0.8444929718971252
      ],
      "type": "VEC3"
    },
    {
      "bufferView": 2,
      "byteOffset": 144012,
      "componentType": 5126,
      "count": 613,
      "max": [
        1.0,
        0.999985933303833,
        0.9717558026313782
      ],
      "min": [
        -1.0,
        -0.9593789577484131,
        -0.999992847442627
      ],
      "type": "VEC3"
    },
    {
      "bufferView": 1,
      "byteOffset": 45552,
      "componentType": 5126,
      "count": 613,
      "max": [
        0.875,
        1.0
      ],
      "min": [
        0.125,
        0.0
      ],
      "type": "VEC2"
    },
    {
      "bufferView": 0,
      "byteOffset": 71844,
      "componentType": 5125,
      "count": 1662,
      "type": "SCALAR"
    },
    {
      "bufferView": 2,
      "byteOffset": 151368,
      "componentType": 5126,
      "count": 156,
      "max": [
        0.3707920014858246,
        -0.024569999426603317,
        0.8453800082206726
      ],
      "min": [
        0.16600699722766876,
        -0.22935500741004944,
        0.8441240191459656
      ],
      "type": "VEC3"
    },
    {
      "bufferView": 2,
      "byteOffset": 153240,
      "componentType": 5126,
      "count": 156,
      "max": [
        0.9969140291213989,
        0.9969140291213989,
        1.0
      ],
      "min": [
        -0.9969140291213989,
        -0.9969140291213989,
        -1.0
      ],
      "type": "VEC3"
    },
    {
      "bufferView": 1,
      "byteOffset": 50456,
      "componentType": 5126,
      "count": 156,
      "max": [
        1.0,
        1.0
      ],
      "min": [
        0.0,
        0.0
      ],
      "type": "VEC2"
    },
    {
      "bufferView": 0,
      "byteOffset": 78492,
      "componentType": 5125,
      "count": 633,
      "type": "SCALAR"
    },
    {
      "bufferView": 2,
      "byteOffset": 155112,
      "componentType": 5126,
      "count": 578,
      "max": [
        0.2703930139541626,
        -0.09103299677371979,
        0.865136981010437
      ],
      "min": [
        0.26640599966049194,
        -0.1059190034866333,
        0.8502500057220459
      ],
      "type": "VEC3"
    },
    {
      "bufferView": 2,
      "byteOffset": 162048,
      "componentType": 5126,
      "count": 578,
      "max": [
        1.0,
        0.9951865673065186,
        0.9951865673065186
      ],
      "min": [
        -1.0,
        -0.9951865673065186,
        -0.9951865673065186
      ],
      "type": "VEC3"
    },
    {
      "bufferView": 1,
      "byteOffset": 51704,
      "componentType": 5126,
      "count": 578,
      "max": [
        1.0,
        1.0
      ],
      "min": [
        0.0,
        0.5
      ],
      "type": "VEC2"
    },
    {
      "bufferView": 0,
      "byteOffset": 81024,
      "componentType": 5125,
      "count": 960,
      "type": "SCALAR"
    },
    {
      "bufferView": 2,
      "byteOffset": 168984,
      "componentType": 5126,
      "count": 712,
      "max": [
        0.27107399702072144,
        -0.09129100292921066,
        0.8648779988288879
      ],
      "min": [
        0.2657249867916107,
        -0.10566099733114243,
        0.8505079746246338
      ],
      "type": "VEC3"
    },
    {
      "bufferView": 2,
      "byteOffset": 177528,
      "componentType": 5126,
      "count": 712,
      "max": [
        1.0,
        0.2730962038040161,
        0.2730962038040161
      ],
      "min": [
        -1.0,
        -0.2730962038040161,
        -0.2730962038040161
      ],
      "type": "VEC3"
    },
    {
      "bufferView": 1,
      "byteOffset": 56328,
      "componentType": 5126,
      "count": 712,
      "max": [
        1.0,
        1.0
      ],
      "min": [
        0.0,
        0.009999999776482582
      ],
      "type": "VEC2"
    },
    {
      "bufferView": 0,
      "byteOffset": 84864,
      "componentType": 5125,
      "count": 2484,
      "type": "SCALAR"
    },
    {
      "bufferView": 2,
      "byteOffset": 186072,
      "componentType": 5126,
      "count": 704,
      "max": [
        0.5015810132026672,
        -0.31049901247024536,
        0.36403200030326843
      ],
      "min": [
        -0.08900599926710129,
        -0.9010859727859497,
        0.06357400119304657
      ],
      "type": "VEC3"
    },
    {
      "bufferView": 2,
      "byteOffset": 194520,
      "componentType": 5126,
      "count": 704,
      "max": [
        1.0,
        1.0,
        -0.0
      ],
      "min": [
        -1.0,
        -1.0,
        -0.0
      ],
      "type": "VEC3"
    },
    {
      "bufferView": 1,
      "byteOffset": 62024,
      "componentType": 5126,
      "count": 704,
      "max": [
        0.8660230040550232,
        0.4313119947910309
      ],
      "min": [
        0.06868799775838852,
        0.06868799775838852
      ],
      "type": "VEC2"
    },
    {
      "bufferView": 0,
      "byteOffset": 94800,
      "componentType": 5125,
      "count": 2112,
      "type": "SCALAR"
    },
    {
      "bufferView": 2,
      "byteOffset": 202968,
      "componentType": 5126,
      "count": 8223,
      "max": [
        0.5240499973297119,
        -0.2880299985408783,
        0.09761200100183487
      ],
      "min": [
        0.18186800181865692,
        -0.6302120089530945,
        7.200000254670158e-05
      ],
      "type": "VEC3"
    },
    {
      "bufferView": 2,
      "byteOffset": 301644,
      "componentType": 5126,
      "count": 8223,
      "max": [
        1.0,
        1.0,
        1.0
      ],
      "min": [
        -1.0,
        -1.0,
        -1.0
      ],
      "type": "VEC3"
    },
    {
      "bufferView": 1,
      "byteOffset": 67656,
      "componentType": 5126,
      "count": 8223,
      "max": [
        1.0,
        1.0
      ],
      "min": [
        0.0,
        0.009999999776482582
      ],
      "type": "VEC2"
    },
    {
      "bufferView": 0,
      "byteOffset": 103248,
      "componentType": 5125,
      "count": 20268,
      "type": "SCALAR"
    },
    {
      "bufferView": 2,
      "byteOffset": 400320,
      "componentType": 5126,
      "count": 8223,
      "max": [
        0.23070700466632843,
        -0.36747699975967407,
        0.09761200100183487
      ],
      "min": [
        -0.11147399991750717,
        -0.9235550165176392,
        7.200000254670158e-05
      ],
      "type": "VEC3"
    },
    {
      "bufferView": 2,
      "byteOffset": 498996,
      "componentType": 5126,
      "count": 8223,
      "max": [
        1.0,
        1.0,
        1.0
      ],
      "min": [
        -1.0,
        -1.0,
        -1.0
      ],
      "type": "VEC3"
    },
    {
      "bufferView": 1,
      "byteOffset": 133440,
      "componentType": 5126,
      "count": 8223,
      "max": [
        1.0,
        1.0
      ],
      "min": [
        0.0,
        0.009999999776482582
      ],
      "type": "VEC2"
    },
    {
      "bufferView": 0,
      "byteOffset": 184320,
      "componentType": 5125,
      "count": 20268,
      "type": "SCALAR"
    },
    {
      "bufferView": 2,
      "byteOffset": 597672,
      "componentType": 5126,
      "count": 7761,
      "max": [
        0.5051890015602112,
        -0.30689099431037903,
        0.5098490118980408
      ],
      "min": [
        -0.09261400252580643,
        -0.9046940207481384,
        7.200000254670158e-05
      ],
      "type": "VEC3"
    },
    {
      "bufferView": 2,
      "byteOffset": 690804,
      "componentType": 5126,
      "count": 7761,
      "max": [
        1.0,
        1.0,
        1.0
      ],
      "min": [
        -1.0,
        -1.0,
        -1.0
      ],
      "type": "VEC3"
    },
    {
      "bufferView": 1,
      "byteOffset": 199224,
      "componentType": 5126,
      "count": 7761,
      "max": [
        1.0,
        1.0
      ],
      "min": [
        0.0,
        0.009999999776482582
      ],
      "type": "VEC2"
    },
    {
      "bufferView": 0,
      "byteOffset": 265392,
      "componentType": 5125,
      "count": 20082,
      "type": "SCALAR"
    },
    {
      "bufferView": 2,
      "byteOffset": 783936,
      "componentType": 5126,
      "count": 460,
      "max": [
        0.44629600644111633,
        -0.36010798811912537,
        1.172747015953064
      ],
      "min": [
        -0.03372099995613098,
        -0.817671000957489,
        0.5019029974937439
      ],
      "type": "VEC3"
    },
    {
      "bufferView": 2,
      "byteOffset": 789456,
      "componentType": 5126,
      "count": 460,
      "max": [
        1.0,
        1.0,
        1.0
      ],
      "min": [
        -1.0,
        -1.0,
        -1.0
      ],
      "type": "VEC3"
    },
    {
      "bufferView": 1,
      "byteOffset": 261312,
      "componentType": 5126,
      "count": 460,
      "max": [
        0.875,
        1.0
      ],
      "min": [
        0.125,
        0.0
      ],
      "type": "VEC2"
    },
    {
      "bufferView": 0,
      "byteOffset": 345720,
      "componentType": 5125,
      "count": 1920,
      "type": "SCALAR"
    },
    {
      "bufferView": 2,
      "byteOffset": 794976,
      "componentType": 5126,
      "count": 1388,
      "max": [
        0.49264898896217346,
        -0.3369370102882385,
        1.0404959917068481
      ],
      "min": [
        -0.08007299900054932,
        -0.8177459836006165,
        0.48228099942207336
      ],
      "type": "VEC3"
    },
    {
      "bufferView": 2,
      "byteOffset": 811632,
      "componentType": 5126,
      "count": 1388,
      "max": [
        1.0,
        1.0,
        1.0
      ],
      "min": [
        -1.0,
        -1.0,
        -1.0
      ],
      "type": "VEC3"
    },
    {
      "bufferView": 1,
      "byteOffset": 264992,
      "componentType": 5126,
      "count": 1388,
      "max": [
        1.0,
        1.0
      ],
      "min": [
        0.0,
        0.0
      ],
      "type": "VEC2"
    },
    {
      "bufferView": 0,
      "byteOffset": 353400,
      "componentType": 5125,
      "count": 14052,
      "type": "SCALAR"
    },
    {
      "bufferView": 2,
      "byteOffset": 828288,
      "componentType": 5126,
      "count": 8342,
      "max": [
        0.5812190175056458,
        0.6594979763031006,
        1.2237809896469116
      ],
      "min": [
        -0.02492699958384037,
        -0.07976900041103363,
        0.8443289995193481
      ],
      "type": "VEC3"
    },
    {
      "bufferView": 2,
      "byteOffset": 928392,
      "componentType": 5126,
      "count": 8342,
      "max": [
        1.0,
        1.0,
        1.0
      ],
      "min": [
        -1.0,
        -0.9999783039093018,
        -1.0
      ],
      "type": "VEC3"
    },
    {
      "bufferView": 1,
      "byteOffset": 276096,
      "componentType": 5126,
      "count": 8342,
      "max": [
        1.0,
        1.0
      ],
      "min": [
        0.0,
        0.0
      ],
      "type": "VEC2"
    },
    {
      "bufferView": 0,
      "byteOffset": 409608,
      "componentType": 5125,
      "count": 86220,
      "type": "SCALAR"
    },
    {
      "bufferView": 2,
      "byteOffset": 1028496,
      "componentType": 5126,
      "count": 8598,
      "max": [
        0.12645800411701202,
        -0.055125001817941666,
        0.888060986995697
      ],
      "min": [
        -0.18242399394512177,
        -0.19793899357318878,
        0.8582649827003479
      ],
      "type": "VEC3"
    },
    {
      "bufferView": 2,
      "byteOffset": 1131672,
      "componentType": 5126,
      "count": 8598,
      "max": [
        0.9663463234901428,
        0.9904969930648804,
        0.9999350309371948
      ],
      "min": [
        -0.9663463234901428,
        -0.9151637554168701,
        -1.0
      ],
      "type": "VEC3"
    },
    {
      "bufferView": 1,
      "byteOffset": 342832,
      "componentType": 5126,
      "count": 8598,
      "max": [
        0.875,
        1.0
      ],
      "min": [
        0.125,
        0.0
      ],
      "type": "VEC2"
    },
    {
      "bufferView": 0,
      "byteOffset": 754488,
      "componentType": 5125,
      "count": 33456,
      "type": "SCALAR"
    },
    {
      "bufferView": 2,
      "byteOffset": 1234848,
      "componentType": 5126,
      "count": 6072,
      "max": [
        0.12740099430084229,
        -0.055125001817941666,
        0.888060986995697
      ],
      "min": [
        -0.15030699968338013,
        -0.07608400285243988,
        0.8728359937667847
      ],
      "type": "VEC3"
    },
    {
      "bufferView": 2,
      "byteOffset": 1307712,
      "componentType": 5126,
      "count": 6072,
      "max": [
        0.9663463234901428,
        0.9904969930648804,
        0.9999350309371948
      ],
      "min": [
        -0.9663463234901428,
        -0.9151637554168701,
        -1.0
      ],
      "type": "VEC3"
    },
    {
      "bufferView": 1,
      "byteOffset": 411616,
      "componentType": 5126,
      "count": 6072,
      "max": [
        0.875,
        1.0
      ],
      "min": [
        0.125,
        0.0
      ],
      "type": "VEC2"
    },
    {
      "bufferView": 0,
      "byteOffset": 888312,
      "componentType": 5125,
      "count": 23616,
      "type": "SCALAR"
    },
    {
      "bufferView": 2,
      "byteOffset": 1380576,
      "componentType": 5126,
      "count": 5020,
      "max": [
        0.07760600000619888,
        -0.1516990065574646,
        0.8768270015716553
      ],
      "min": [
        -0.13199099898338318,
        -0.1726589947938919,
        0.8616030216217041
      ],
      "type": "VEC3"
    },
    {
      "bufferView": 2,
      "byteOffset": 1440816,
      "componentType": 5126,
      "count": 5020,
      "max": [
        0.9663463234901428,
        0.9904969930648804,
        0.9999350309371948
      ],
      "min": [
        -0.9663463234901428,
        -0.9151637554168701,
        -1.0
      ],
      "type": "VEC3"
    },
    {
      "bufferView": 1,
      "byteOffset": 460192,
      "componentType": 5126,
      "count": 5020,
      "max": [
        0.875,
        1.0
      ],
      "min": [
        0.125,
        0.0
      ],
      "type": "VEC2"
    },
    {
      "bufferView": 0,
      "byteOffset": 982776,
      "componentType": 5125,
      "count": 19680,
      "type": "SCALAR"
    },
    {
      "bufferView": 2,
      "byteOffset": 1501056,
      "componentType": 5126,
      "count": 5522,
      "max": [
        0.08529900014400482,
        -0.12624399363994598,
        0.8803849816322327
      ],
      "min": [
        -0.14525699615478516,
        -0.14720399677753448,
        0.8651599884033203
      ],
      "type": "VEC3"
    },
    {
      "bufferView": 2,
      "byteOffset": 1567320,
      "componentType": 5126,
      "count": 5522,
      "max": [
        0.9663463234901428,
        0.9904969930648804,
        0.9999350309371948
      ],
      "min": [
        -0.9663463234901428,
        -0.9151637554168701,
        -1.0
      ],
      "type": "VEC3"
    },
    {
      "bufferView": 1,
      "byteOffset": 500352,
      "componentType": 5126,
      "count": 5522,
      "max": [
        0.875,
        1.0
      ],
      "min": [
        0.125,
        0.0
      ],
      "type": "VEC2"
    },
    {
      "bufferView": 0,
      "byteOffset": 1061496,
      "componentType": 5125,
      "count": 21648,
      "type": "SCALAR"
    },
    {
      "bufferView": 2,
      "byteOffset": 1633584,
      "componentType": 5126,
      "count": 6024,
      "max": [
        0.09819500148296356,
        -0.10188200324773788,
        0.8820809721946716
      ],
      "min": [
        -0.15332099795341492,
        -0.1228410005569458,
        0.8668559789657593
      ],
      "type": "VEC3"
    },
    {
      "bufferView": 2,
      "byteOffset": 1705872,
      "componentType": 5126,
      "count": 6024,
      "max": [
        0.9663463234901428,
        0.9904969930648804,
        0.9999350309371948
      ],
      "min": [
        -0.9663463234901428,
        -0.9151637554168701,
        -1.0
      ],
      "type": "VEC3"
    },
    {
      "bufferView": 1,
      "byteOffset": 544528,
      "componentType": 5126,
      "count": 6024,
      "max": [
        0.875,
        1.0
      ],
      "min": [
        0.125,
        0.0
      ],
      "type": "VEC2"
    },
    {
      "bufferView": 0,
      "byteOffset": 1148088,
      "componentType": 5125,
      "count": 23616,
      "type": "SCALAR"
    },
    {
      "bufferView": 2,
      "byteOffset": 1778160,
      "componentType": 5126,
      "count": 6526,
      "max": [
        0.09005200117826462,
        -0.08007299900054932,
        0.8842269778251648
      ],
      "min": [
        -0.18242399394512177,
        -0.10103199630975723,
        0.8690019845962524
      ],
      "type": "VEC3"
    },
    {
      "bufferView": 2,
      "byteOffset": 1856472,
      "componentType": 5126,
      "count": 6526,
      "max": [
        0.9663463234901428,
        0.9904969930648804,
        0.9999350309371948
      ],
      "min": [
        -0.9663463234901428,
        -0.9151637554168701,
        -1.0
      ],
      "type": "VEC3"
    },
    {
      "bufferView": 1,
      "byteOffset": 592720,
      "componentType": 5126,
      "count": 6526,
      "max": [
        0.875,
        1.0
      ],
      "min": [
        0.125,
        0.0
      ],
      "type": "VEC2"
    },
    {
      "bufferView": 0,
      "byteOffset": 1242552,
      "componentType": 5125,
      "count": 25584,
      "type": "SCALAR"
    },
    {
      "bufferView": 2,
      "byteOffset": 1934784,
      "componentType": 5126,
      "count": 1195,
      "max": [
        0.17872199416160583,
        0.4906409978866577,
        1.2151119709014893
      ],
      "min": [
        -0.17872199416160583,
        0.14857199788093567,
        0.8470919728279114
      ],
      "type": "VEC3"
    },
    {
      "bufferView": 2,
      "byteOffset": 1949124,
      "componentType": 5126,
      "count": 1195,
      "max": [
        1.0,
        1.0,
        1.0
      ],
      "min": [
        -1.0,
        -1.0,
        -1.0
      ],
      "type": "VEC3"
    },
    {
      "bufferView": 1,
      "byteOffset": 644928,
      "componentType": 5126,
      "count": 1195,
      "max": [
        0.8757489919662476,
        1.0
      ],
      "min": [
        0.0,
        0.0
      ],
      "type": "VEC2"
    },
    {
      "bufferView": 0,
      "byteOffset": 1344888,
      "componentType": 5125,
      "count": 5706,
      "type": "SCALAR"
    },
    {
      "bufferView": 2,
      "byteOffset": 1963464,
      "componentType": 5126,
      "count": 800,
      "max": [
        0.15394200384616852,
        0.19927899539470673,
        0.9254459738731384
      ],
      "min": [
        0.1034339964389801,
        0.19424700736999512,
        0.9053149819374084
      ],
      "type": "VEC3"
    },
    {
      "bufferView": 2,
      "byteOffset": 1973064,
      "componentType": 5126,
      "count": 800,
      "max": [
        1.0,
        0.9944515824317932,
        0.9944515824317932
      ],
      "min": [
        -1.0,
        -0.9996574521064758,
        -0.9944515824317932
      ],
      "type": "VEC3"
    },
    {
      "bufferView": 1,
      "byteOffset": 654488,
      "componentType": 5126,
      "count": 800,
      "max": [
        0.0,
        0.0
      ],
      "min": [
        0.0,
        0.0
      ],
      "type": "VEC2"
    },
    {
      "bufferView": 0,
      "byteOffset": 1367712,
      "componentType": 5125,
      "count": 2820,
      "type": "SCALAR"
    },
    {
      "bufferView": 2,
      "byteOffset": 1982664,
      "componentType": 5126,
      "count": 236,
      "max": [
        0.29199400544166565,
        -0.0777750015258789,
        0.8723809719085693
      ],
      "min": [
        0.2448049932718277,
        -0.17746800184249878,
        0.8473929762840271
      ],
      "type": "VEC3"
    },
    {
      "bufferView": 2,
      "byteOffset": 1985496,
      "componentType": 5126,
      "count": 236,
      "max": [
        1.0,
        0.956083357334137,
        0.9999997615814209
      ],
      "min": [
        -1.0,
        -0.9932255744934082,
        -0.956083357334137
      ],
      "type": "VEC3"
    },
    {
      "bufferView": 1,
      "byteOffset": 660888,
      "componentType": 5126,
      "count": 236,
      "max": [
        0.8604000210762024,
        0.9854040145874023
      ],
      "min": [
        0.13962900638580322,
        0.0
      ],
      "type": "VEC2"
    },
    {
      "bufferView": 0,
      "byteOffset": 1378992,
      "componentType": 5125,
      "count": 666,
      "type": "SCALAR"
    },
    {
      "bufferView": 2,
      "byteOffset": 1988328,
      "componentType": 5126,
      "count": 1080,
      "max": [
        0.8666409850120544,
        0.6713659763336182,
        0.8443830013275146
      ],
      "min": [
        -0.4540649950504303,
        -0.2675879895687103,
        -0.0007329999934881926
      ],
      "type": "VEC3"
    },
    {
      "bufferView": 2,
      "byteOffset": 2001288,
      "componentType": 5126,
      "count": 1080,
      "max": [
        0.9981923699378967,
        0.9942156076431274,
        0.9935465455055237
      ],
      "min": [
        -0.9981923699378967,
        -0.9942156076431274,
        -0.9935465455055237
      ],
      "type": "VEC3"
    },
    {
      "bufferView": 1,
      "byteOffset": 662776,
      "componentType": 5126,
      "count": 1080,
      "max": [
        1.0,
        1.0
      ],
      "min": [
        0.0,
        0.0
      ],
      "type": "VEC2"
    },
    {
      "bufferView": 0,
      "byteOffset": 1381656,
      "componentType": 5125,
      "count": 6420,
      "type": "SCALAR"
    },
    {
      "bufferView": 2,
      "byteOffset": 2014248,
      "componentType": 5126,
      "count": 858,
      "max": [
        0.9177520275115967,
        0.6572250127792358,
        1.1987450122833252
      ],
      "min": [
        -0.018000999465584755,
        0.38951799273490906,
        0.8410030007362366
      ],
      "type": "VEC3"
    },
    {
      "bufferView": 2,
      "byteOffset": 2024544,
      "componentType": 5126,
      "count": 858,
      "max": [
        0.999788224697113,
        0.9937410354614258,
        0.9942259192466736
      ],
      "min": [
        -0.9995366930961609,
        -0.9936964511871338,
        -0.9936900734901428
      ],
      "type": "VEC3"
    },
    {
      "bufferView": 1,
      "byteOffset": 671416,
      "componentType": 5126,
      "count": 858,
      "max": [
        1.0,
        1.0
      ],
      "min": [
        0.0,
        0.0
      ],
      "type": "VEC2"
    },
    {
      "bufferView": 0,
      "byteOffset": 1407336,
      "componentType": 5125,
      "count": 9216,
      "type": "SCALAR"
    }
  ],
  "asset": {
    "extras": {
      "author": "Minute_watchers_64 (https://sketchfab.com/Minute_watchers_64)",
      "license": "CC-BY-4.0 (http://creativecommons.org/licenses/by/4.0/)",
      "source": "https://sketchfab.com/3d-models/old-crt-computer-setup-73afcd4ed95c4eedbec8774512101bcb",
      "title": "OLD CRT COMPUTER SETUP"
    },
    "generator": "Sketchfab-16.16.0",
    "version": "2.0"
  },
  "bufferViews": [
    {
      "buffer": 0,
      "byteLength": 1444200,
      "name": "floatBufferViews",
      "target": 34963
    },
    {
      "buffer": 0,
      "byteLength": 678280,
      "byteOffset": 1444200,
      "byteStride": 8,
      "name": "floatBufferViews",
      "target": 34962
    },
    {
      "buffer": 0,
      "byteLength": 2034840,
      "byteOffset": 2122480,
      "byteStride": 12,
      "name": "floatBufferViews",
      "target": 34962
    }
  ],
  "buffers": [
    {
      "byteLength": 4157320,
      "uri": "scene.bin"
    }
  ],
  "materials": [
    {
      "doubleSided": true,
      "name": "METAL",
      "pbrMetallicRoughness": {
        "baseColorFactor": [
          0.8,
          0.8,
          0.8,
          1.0
        ],
        "metallicFactor": 0.0,
        "roughnessFactor": 0.7610056521714805
      }
    },
    {
      "doubleSided": true,
      "name": "PLASTIC",
      "pbrMetallicRoughness": {
        "baseColorFactor": [
          0.011034,
          0.011034,
          0.011034,
          1.0
        ],
        "metallicFactor": 0.0,
        "roughnessFactor": 0.8040262039472036
      }
    },
    {
      "doubleSided": true,
      "name": "SEAT_CLOATH",
      "pbrMetallicRoughness": {
        "baseColorFactor": [
          0.800172,
          0.007457,
          0.0,
          1.0
        ],
        "metallicFactor": 0.0,
        "roughnessFactor": 0.840328156621263
      }
    },
    {
      "doubleSided": true,
      "name": "SUPPORTING_THING",
      "pbrMetallicRoughness": {
        "baseColorFactor": [
          0.011034,
          0.011034,
          0.011034,
          1.0
        ],
        "metallicFactor": 0.0,
        "roughnessFactor": 0.7733800616440925
      }
    },
    {
      "doubleSided": true,
      "name": "button_middle_cool_part",
      "pbrMetallicRoughness": {
        "baseColorFactor": [
          0.8,
          0.8,
          0.8,
          1.0
        ],
        "metallicFactor": 0.0,
        "roughnessFactor": 0.7822061412653569
      }
    },
    {
      "doubleSided": true,
      "name": "cpu_body",
      "pbrMetallicRoughness": {
        "baseColorFactor": [
          0.890027,
          0.839168,
          0.478808,
          1.0
        ],
        "metallicFactor": 0.0,
        "roughnessFactor": 0.7838892547079773
      }
    },
    {
      "doubleSided": true,
      "name": "cpu_body.buttons",
      "pbrMetallicRoughness": {
        "baseColorFactor": [
          0.890027,
          0.839168,
          0.478808,
          1.0
        ],
        "metallicFactor": 0.0,
        "roughnessFactor": 0.7838892547079773
      }
    },
    {
      "doubleSided": true,
      "name": "cpu_front.",
      "pbrMetallicRoughness": {
        "baseColorFactor": [
          1.0,
          0.949285,
          0.357295,
          1.0
        ],
        "metallicFactor": 0.0,
        "roughnessFactor": 0.75
      }
    },
    {
      "doubleSided": true,
      "name": "key_caps",
      "pbrMetallicRoughness": {
        "baseColorFactor": [
          0.614646,
          0.554635,
          0.423501,
          1.0
        ],
        "metallicFactor": 0.0,
        "roughnessFactor": 0.7557986441286969
      }
    },
    {
      "doubleSided": true,
      "name": "keyboard_body",
      "pbrMetallicRoughness": {
        "baseColorFactor": [
          0.380024,
          0.343451,
          0.263507,
          1.0
        ],
        "metallicFactor": 0.0,
        "roughnessFactor": 0.7535759975013481
      }
    },
    {
      "doubleSided": true,
      "name": "monitor",
      "pbrMetallicRoughness": {
        "baseColorFactor": [
          0.787416,
          0.70997,
          0.541203,
          1.0
        ],
        "metallicFactor": 0.0,
        "roughnessFactor": 0.742907564615348
      }
    },
    {
      "doubleSided": true,
      "name": "monitor.001",
      "pbrMetallicRoughness": {
        "baseColorFactor": [
          1.0,
          0.9638,
          0.291251,
          1.0
        ],
        "metallicFactor": 0.0,
        "roughnessFactor": 0.7838892547079773
      }
    },
    {
      "doubleSided": true,
      "name": "monitor_glass",
      "pbrMetallicRoughness": {
        "baseColorFactor": [
          0.006877,
          0.011055,
          0.003277,
          1.0
        ],
        "metallicFactor": 0.0,
        "roughnessFactor": 0.760321827307157
      }
    },
    {
      "doubleSided": true,
      "name": "mouse",
      "pbrMetallicRoughness": {
        "baseColorFactor": [
          0.787416,
          0.723397,
          0.473609,
          1.0
        ],
        "metallicFactor": 0.0,
        "roughnessFactor": 0.8011823178082373
      }
    },
    {
      "doubleSided": true,
      "name": "mouse.body",
      "pbrMetallicRoughness": {
        "baseColorFactor": [
          0.5225,
          0.480528,
          0.316319,
          1.0
        ],
        "metallicFactor": 0.0,
        "roughnessFactor": 0.8011823178082373
      }
    },
    {
      "doubleSided": true,
      "name": "mouse_pad",
      "pbrMetallicRoughness": {
        "baseColorFactor": [
          0.0,
          0.0,
          0.0,
          1.0
        ],
        "metallicFactor": 0.0
      }
    },
    {
      "doubleSided": true,
      "name": "scroll_wheel_balck_part",
      "pbrMetallicRoughness": {
        "baseColorFactor": [
          0.021092,
          0.021092,
          0.021092,
          1.0
        ],
        "metallicFactor": 0.0,
        "roughnessFactor": 0.8011823178082373
      }
    },
    {
      "doubleSided": true,
      "name": "scroll_wheel_metal",
      "pbrMetallicRoughness": {
        "baseColorFactor": [
          0.8,
          0.8,
          0.8,
          1.0
        ],
        "metallicFactor": 0.0,
        "roughnessFactor": 0.760321827307157
      }
    },
    {
      "doubleSided": true,
      "name": "table",
      "pbrMetallicRoughness": {
        "baseColorFactor": [
          0.8,
          0.8,
          0.8,
          1.0
        ],
        "metallicFactor": 0.0
      }
    },
    {
      "doubleSided": true,
      "name": "wire",
      "pbrMetallicRoughness": {
        "baseColorFactor": [
          0.021093,
          0.021093,
          0.021093,
          1.0
        ],
        "metallicFactor": 0.0,
        "roughnessFactor": 0.8011823178082373
      }
    }
  ],
  "meshes": [
    {
      "name": "Object_0",
      "primitives": [
        {
          "attributes": {
            "NORMAL": 1,
            "POSITION": 0,
            "TEXCOORD_0": 2
          },
          "indices": 3,
          "material": 4,
          "mode": 4
        }
      ]
    },
    {
      "name": "Object_1",
      "primitives": [
        {
          "attributes": {
            "NORMAL": 5,
            "POSITION": 4,
            "TEXCOORD_0": 6
          },
          "indices": 7,
          "material": 6,
          "mode": 4
        }
      ]
    },
    {
      "name": "Object_2",
      "primitives": [
        {
          "attributes": {
            "NORMAL": 9,
            "POSITION": 8,
            "TEXCOORD_0": 10
          },
          "indices": 11,
          "material": 7,
          "mode": 4
        }
      ]
    },
    {
      "name": "Object_3",
      "primitives": [
        {
          "attributes": {
            "NORMAL": 13,
            "POSITION": 12,
            "TEXCOORD_0": 14
          },
          "indices": 15,
          "material": 9,
          "mode": 4
        }
      ]
    },
    {
      "name": "Object_4",
      "primitives": [
        {
          "attributes": {
            "NORMAL": 17,
            "POSITION": 16,
            "TEXCOORD_0": 18
          },
          "indices": 19,
          "material": 12,
          "mode": 4
        }
      ]
    },
    {
      "name": "Object_5",
      "primitives": [
        {
          "attributes": {
            "NORMAL": 21,
            "POSITION": 20,
            "TEXCOORD_0": 22
          },
          "indices": 23,
          "material": 13,
          "mode": 4
        }
      ]
    },
    {
      "name": "Object_6",
      "primitives": [
        {
          "attributes": {
            "NORMAL": 25,
            "POSITION": 24,
            "TEXCOORD_0": 26
          },
          "indices": 27,
          "material": 15,
          "mode": 4
        }
      ]
    },
    {
      "name": "Object_7",
      "primitives": [
        {
          "attributes": {
            "NORMAL": 29,
            "POSITION": 28,
            "TEXCOORD_0": 30
          },
          "indices": 31,
          "material": 16,
          "mode": 4
        }
      ]
    },
    {
      "name": "Object_8",
      "primitives": [
        {
          "attributes": {
            "NORMAL": 33,
            "POSITION": 32,
            "TEXCOORD_0": 34
          },
          "indices": 35,
          "material": 17,
          "mode": 4
        }
      ]
    },
    {
      "name": "Object_9",
      "primitives": [
        {
          "attributes": {
            "NORMAL": 37,
            "POSITION": 36,
            "TEXCOORD_0": 38
          },
          "indices": 39,
          "material": 0,
          "mode": 4
        }
      ]
    },
    {
      "name": "Object_10",
      "primitives": [
        {
          "attributes": {
            "NORMAL": 41,
            "POSITION": 40,
            "TEXCOORD_0": 42
          },
          "indices": 43,
          "material": 1,
          "mode": 4
        }
      ]
    },
    {
      "name": "Object_11",
      "primitives": [
        {
          "attributes": {
            "NORMAL": 45,
            "POSITION": 44,
            "TEXCOORD_0": 46
          },
          "indices": 47,
          "material": 1,
          "mode": 4
        }
      ]
    },
    {
      "name": "Object_12",
      "primitives": [
        {
          "attributes": {
            "NORMAL": 49,
            "POSITION": 48,
            "TEXCOORD_0": 50
          },
          "indices": 51,
          "material": 1,
          "mode": 4
        }
      ]
    },
    {
      "name": "Object_13",
      "primitives": [
        {
          "attributes": {
            "NORMAL": 53,
            "POSITION": 52,
            "TEXCOORD_0": 54
          },
          "indices": 55,
          "material": 2,
          "mode": 4
        }
      ]
    },
    {
      "name": "Object_14",
      "primitives": [
        {
          "attributes": {
            "NORMAL": 57,
            "POSITION": 56,
            "TEXCOORD_0": 58
          },
          "indices": 59,
          "material": 3,
          "mode": 4
        }
      ]
    },
    {
      "name": "Object_15",
      "primitives": [
        {
          "attributes": {
            "NORMAL": 61,
            "POSITION": 60,
            "TEXCOORD_0": 62
          },
          "indices": 63,
          "material": 5,
          "mode": 4
        }
      ]
    },
    {
      "name": "Object_16",
      "primitives": [
        {
          "attributes": {
            "NORMAL": 65,
            "POSITION": 64,
            "TEXCOORD_0": 66
          },
          "indices": 67,
          "material": 8,
          "mode": 4
        }
      ]
    },
    {
      "name": "Object_17",
      "primitives": [
        {
          "attributes": {
            "NORMAL": 69,
            "POSITION": 68,
            "TEXCOORD_0": 70
          },
          "indices": 71,
          "material": 8,
          "mode": 4
        }
      ]
    },
    {
      "name": "Object_18",
      "primitives": [
        {
          "attributes": {
            "NORMAL": 73,
            "POSITION": 72,
            "TEXCOORD_0": 74
          },
          "indices": 75,
          "material": 8,
          "mode": 4
        }
      ]
    },
    {
      "name": "Object_19",
      "primitives": [
        {
          "attributes": {
            "NORMAL": 77,
            "POSITION": 76,
            "TEXCOORD_0": 78
          },
          "indices": 79,
          "material": 8,
          "mode": 4
        }
      ]
    },
    {
      "name": "Object_20",
      "primitives": [
        {
          "attributes": {
            "NORMAL": 81,
            "POSITION": 80,
            "TEXCOORD_0": 82
          },
          "indices": 83,
          "material": 8,
          "mode": 4
        }
      ]
    },
    {
      "name": "Object_21",
      "primitives": [
        {
          "attributes": {
            "NORMAL": 85,
            "POSITION": 84,
            "TEXCOORD_0": 86
          },
          "indices": 87,
          "material": 8,
          "mode": 4
        }
      ]
    },
    {
      "name": "Object_22",
      "primitives": [
        {
          "attributes": {
            "NORMAL": 89,
            "POSITION": 88,
            "TEXCOORD_0": 90
          },
          "indices": 91,
          "material": 10,
          "mode": 4
        }
      ]
    },
    {
      "name": "Object_23",
      "primitives": [
        {
          "attributes": {
            "NORMAL": 93,
            "POSITION": 92,
            "TEXCOORD_0": 94
          },
          "indices": 95,
          "material": 11,
          "mode": 4
        }
      ]
    },
    {
      "name": "Object_24",
      "primitives": [
        {
          "attributes": {
            "NORMAL": 97,
            "POSITION": 96,
            "TEXCOORD_0": 98
          },
          "indices": 99,
          "material": 14,
          "mode": 4
        }
      ]
    },
    {
      "name": "Object_25",
      "primitives": [
        {
          "attributes": {
            "NORMAL": 101,
            "POSITION": 100,
            "TEXCOORD_0": 102
          },
          "indices": 103,
          "material": 18,
          "mode": 4
        }
      ]
    },
    {
      "name": "Object_26",
      "primitives": [
        {
          "attributes": {
            "NORMAL": 105,
            "POSITION": 104,
            "TEXCOORD_0": 106
          },
          "indices": 107,
          "material": 19,
          "mode": 4
        }
      ]
    }
  ],
  "nodes": [
    {
      "children": [
        1
      ],
      "matrix": [
        1.0,
        0.0,
        0.0,
        0.0,
        0.0,
        2.220446049250313e-16,
        -1.0,
        0.0,
        0.0,
        1.0,
        2.220446049250313e-16,
        0.0,
        0.0,
        0.0,
        0.0,
        1.0
      ],
      "name": "Sketchfab_model"
    },
    {
      "children": [
        2,
        3,
        4,
        5,
        6,
        7,
        8,
        9,
        10,
        11,
        12,
        13,
        14,
        15,
        16,
        17,
        18,
        19,
        20,
        21,
        22,
        23,
        24,
        25,
        26,
        27,
        28
      ],
      "name": "TABLE AND CHAIR WITH A WEIRD THING.obj.cleaner.materialmerger.gles"
    },
    {
      "mesh": 0,
      "name": "Object_2"
    },
    {
      "mesh": 1,
      "name": "Object_3"
    },
    {
      "mesh": 2,
      "name": "Object_4"
    },
    {
      "mesh": 3,
      "name": "Object_5"
    },
    {
      "mesh": 4,
      "name": "Object_6"
    },
    {
      "mesh": 5,
      "name": "Object_7"
    },
    {
      "mesh": 6,
      "name": "Object_8"
    },
    {
      "mesh": 7,
      "name": "Object_9"
    },
    {
      "mesh": 8,
      "name": "Object_10"
    },
    {
      "mesh": 9,
      "name": "Object_11"
    },
    {
      "mesh": 10,
      "name": "Object_12"
    },
    {
      "mesh": 11,
      "name": "Object_13"
    },
    {
      "mesh": 12,
      "name": "Object_14"
    },
    {
      "mesh": 13,
      "name": "Object_15"
    },
    {
      "mesh": 14,
      "name": "Object_16"
    },
    {
      "mesh": 15,
      "name": "Object_17"
    },
    {
      "mesh": 16,
      "name": "Object_18"
    },
    {
      "mesh": 17,
      "name": "Object_19"
    },
    {
      "mesh": 18,
      "name": "Object_20"
    },
    {
      "mesh": 19,
      "name": "Object_21"
    },
    {
      "mesh": 20,
      "name": "Object_22"
    },
    {
      "mesh": 21,
      "name": "Object_23"
    },
    {
      "mesh": 22,
      "name": "Object_24"
    },
    {
      "mesh": 23,
      "name": "Object_25"
    },
    {
      "mesh": 24,
      "name": "Object_26"
    },
    {
      "mesh": 25,
      "name": "Object_27"
    },
    {
      "mesh": 26,
      "name": "Object_28"
    }
  ],
  "scene": 0,
  "scenes": [
    {
      "name": "Sketchfab_Scene",
      "nodes": [
        0
      ]
    }
  ]
}
