{
  "accessors": [
    {
      "bufferView": 2,
      "componentType": 5126,
      "count": 840,
      "max": [
        0.3629179000854492,
        1.4247517585754395,
        1.6383328437805176
      ],
      "min": [
        -3.4021968841552734,
        -1.3869986534118652,
        -1.6383328437805176
      ],
      "type": "VEC3"
    },
    {
      "bufferView": 2,
      "byteOffset": 10080,
      "componentType": 5126,
      "count": 840,
      "max": [
        0.999719500541687,
        0.9999936819076538,
        1.0
      ],
      "min": [
        -0.9999575018882751,
        -0.9999936819076538,
        -1.0
      ],
      "type": "VEC3"
    },
    {
      "bufferView": 1,
      "componentType": 5126,
      "count": 840,
      "max": [
        1.0,
        1.0000001192092896
      ],
      "min": [
        0.0,
        0.0
      ],
      "type": "VEC2"
    },
    {
      "bufferView": 0,
      "componentType": 5125,
      "count": 3126,
      "type": "SCALAR"
    },
    {
      "bufferView": 2,
      "byteOffset": 20160,
      "componentType": 5126,
      "count": 192,
      "max": [
        -3.2962539196014404,
        1.0381958484649658,
        1.4350626468658447
      ],
      "min": [
        -3.3924238681793213,
        -0.9710824489593506,
        -1.4350626468658447
      ],
      "type": "VEC3"
    },
    {
      "bufferView": 2,
      "byteOffset": 22464,
      "componentType": 5126,
      "count": 192,
      "max": [
        0.9124583601951599,
        0.8107463717460632,
        0.9934419393539429
      ],
      "min": [
        -0.9999998807907104,
        -0.8350032567977905,
        -0.9934419393539429
      ],
      "type": "VEC3"
    },
    {
      "bufferView": 1,
      "byteOffset": 6720,
      "componentType": 5126,
      "count": 192,
      "max": [
        0.5833024978637695,
        0.12468842417001724
      ],
      "min": [
        0.4223485589027405,
        0.02644283138215542
      ],
      "type": "VEC2"
    },
    {
      "bufferView": 0,
      "byteOffset": 12504,
      "componentType": 5125,
      "count": 984,
      "type": "SCALAR"
    },
    {
      "bufferView": 2,
      "byteOffset": 24768,
      "componentType": 5126,
      "count": 4122,
      "max": [
        0.8598874807357788,
        1.4499396085739136,
        1.6553012132644653
      ],
      "min": [
        -3.0330305099487305,
        -2.2436671257019043,
        -1.6553012132644653
      ],
      "type": "VEC3"
    },
    {
      "bufferView": 2,
      "byteOffset": 74232,
      "componentType": 5126,
      "count": 4122,
      "max": [
        0.9999999403953552,
        0.9999999403953552,
        1.0
      ],
      "min": [
        -1.0,
        -1.0,
        -1.0
      ],
      "type": "VEC3"
    },
    {
      "bufferView": 1,
      "byteOffset": 8256,
      "componentType": 5126,
      "count": 4122,
      "max": [
        0.8750001788139343,
        1.0000001192092896
      ],
      "min": [
        0.1249999925494194,
        0.0
      ],
      "type": "VEC2"
    },
    {
      "bufferView": 0,
      "byteOffset": 16440,
      "componentType": 5125,
      "count": 16248,
      "type": "SCALAR"
    },
    {
      "bufferView": 2,
      "byteOffset": 123696,
      "componentType": 5126,
      "count": 502,
      "max": [
        -2.9468491077423096,
        1.407833456993103,
        1.6383328437805176
      ],
      "min": [
        -3.4021973609924316,
        -1.3869988918304443,
        -1.6378382444381714
      ],
      "type": "VEC3"
    },
    {
      "bufferView": 2,
      "byteOffset": 129720,
      "componentType": 5126,
      "count": 502,
      "max": [
        0.05758961662650108,
        0.9999836087226868,
        0.999999463558197
      ],
      "min": [
        -0.9997202157974243,
        -0.9999836087226868,
        -0.999999463558197
      ],
      "type": "VEC3"
    },
    {
      "bufferView": 1,
      "byteOffset": 41232,
      "componentType": 5126,
      "count": 502,
      "max": [
        0.6219780445098877,
        1.0000001192092896
      ],
      "min": [
        0.3794347941875458,
        0.0
      ],
      "type": "VEC2"
    },
    {
      "bufferView": 0,
      "byteOffset": 81432,
      "componentType": 5125,
      "count": 2280,
      "type": "SCALAR"
    },
    {
      "bufferView": 2,
      "byteOffset": 135744,
      "componentType": 5126,
      "count": 161,
      "max": [
        -3.2962543964385986,
        1.0705320835113525,
        1.4498815536499023
      ],
      "min": [
        -3.3924243450164795,
        -1.0047893524169922,
        -1.448936939239502
      ],
      "type": "VEC3"
    },
    {
      "bufferView": 2,
      "byteOffset": 137676,
      "componentType": 5126,
      "count": 161,
      "max": [
        -0.6162305474281311,
        0.4405306279659271,
        0.7875658869743347
      ],
      "min": [
        -0.9999999403953552,
        -0.43997615575790405,
        -0.784325897693634
      ],
      "type": "VEC3"
    },
    {
      "bufferView": 1,
      "byteOffset": 45248,
      "componentType": 5126,
      "count": 161,
      "max": [
        0.5833024978637695,
        0.22352798283100128
      ],
      "min": [
        0.4223485589027405,
        0.02644283138215542
      ],
      "type": "VEC2"
    },
    {
      "bufferView": 0,
      "byteOffset": 90552,
      "componentType": 5125,
      "count": 864,
      "type": "SCALAR"
    },
    {
      "bufferView": 2,
      "byteOffset": 139608,
      "componentType": 5126,
      "count": 2835,
      "max": [
        0.8598875999450684,
        1.4516363143920898,
        1.6553012132644653
      ],
      "min": [
        -3.0330309867858887,
        -2.2436676025390625,
        -1.6553012132644653
      ],
      "type": "VEC3"
    },
    {
      "bufferView": 2,
      "byteOffset": 173628,
      "componentType": 5126,
      "count": 2835,
      "max": [
        0.9999999403953552,
        0.9999999403953552,
        1.0
      ],
      "min": [
        -1.0,
        -1.0,
        -1.0
      ],
      "type": "VEC3"
    },
    {
      "bufferView": 1,
      "byteOffset": 46536,
      "componentType": 5126,
      "count": 2835,
      "max": [
        0.8750001788139343,
        1.0000001192092896
      ],
      "min": [
        0.1249999925494194,
        0.0
      ],
      "type": "VEC2"
    },
    {
      "bufferView": 0,
      "byteOffset": 94008,
      "componentType": 5125,
      "count": 12792,
      "type": "SCALAR"
    }
  ],
  "asset": {
    "extras": {
      "author": "SGAstudio (https://sketchfab.com/SGAstudios3DandGameDevelopment)",
      "license": "CC-BY-4.0 (http://creativecommons.org/licenses/by/4.0/)",
      "source": "https://sketchfab.com/3d-models/crt-monitor-38cb8c4a7ad44611a0dd3da65d977580",
      "title": "CRT Monitor"
    },
    "generator": "Sketchfab-15.30.0",
    "version": "2.0"
  },
  "bufferViews": [
    {
      "buffer": 0,
      "byteLength": 145176,
      "name": "floatBufferViews",
      "target": 34963
    },
    {
      "buffer": 0,
      "byteLength": 69216,
      "byteOffset": 145176,
      "byteStride": 8,
      "name": "floatBufferViews",
      "target": 34962
    },
    {
      "buffer": 0,
      "byteLength": 207648,
      "byteOffset": 214392,
      "byteStride": 12,
      "name": "floatBufferViews",
      "target": 34962
    }
  ],
  "buffers": [
    {
      "byteLength": 422040,
      "uri": "scene.bin"
    }
  ],
  "materials": [
    {
      "doubleSided": true,
      "name": "Grey1",
      "pbrMetallicRoughness": {
        "baseColorFactor": [
          0.114935,
          0.114935,
          0.114935,
          1.0
        ],
        "metallicFactor": 0.0,
        "roughnessFactor": 0.5
      }
    },
    {
      "doubleSided": true,
      "name": "Glass",
      "pbrMetallicRoughness": {
        "baseColorFactor": [
          0.375748,
          0.375748,
          0.375748,
          1.0
        ],
        "metallicFactor": 0.0,
        "roughnessFactor": 0.101942
      }
    },
    {
      "doubleSided": true,
      "name": "Black",
      "pbrMetallicRoughness": {
        "baseColorFactor": [
          0.0272099,
          0.0265473,
          0.0265473,
          1.0
        ],
        "metallicFactor": 0.0,
        "roughnessFactor": 0.5
      }
    }
  ],
  "meshes": [
    {
      "name": "Object_0",
      "primitives": [
        {
          "attributes": {
            "NORMAL": 1,
            "POSITION": 0,
            "TEXCOORD_0": 2
          },
          "indices": 3,
          "material": 0,
          "mode": 4
        }
      ]
    },
    {
      "name": "Object_1",
      "primitives": [
        {
          "attributes": {
            "NORMAL": 5,
            "POSITION": 4,
            "TEXCOORD_0": 6
          },
          "indices": 7,
          "material": 1,
          "mode": 4
        }
      ]
    },
    {
      "name": "Object_2",
      "primitives": [
        {
          "attributes": {
            "NORMAL": 9,
            "POSITION": 8,
            "TEXCOORD_0": 10
          },
          "indices": 11,
          "material": 2,
          "mode": 4
        }
      ]
    },
    {
      "name": "Object_3",
      "primitives": [
        {
          "attributes": {
            "NORMAL": 13,
            "POSITION": 12,
            "TEXCOORD_0": 14
          },
          "indices": 15,
          "material": 0,
          "mode": 4
        }
      ]
    },
    {
      "name": "Object_4",
      "primitives": [
        {
          "attributes": {
            "NORMAL": 17,
            "POSITION": 16,
            "TEXCOORD_0": 18
          },
          "indices": 19,
          "material": 1,
          "mode": 4
        }
      ]
    },
    {
      "name": "Object_5",
      "primitives": [
        {
          "attributes": {
            "NORMAL": 21,
            "POSITION": 20,
            "TEXCOORD_0": 22
          },
          "indices": 23,
          "material": 2,
          "mode": 4
        }
      ]
    }
  ],
  "nodes": [
    {
      "children": [
        1
      ],
      "matrix": [
        1.0,
        0.0,
        0.0,
        0.0,
        0.0,
        2.220446049250313e-16,
        -1.0,
        0.0,
        0.0,
        1.0,
        2.220446049250313e-16,
        0.0,
        0.0,
        0.0,
        0.0,
        1.0
      ],
      "name": "Sketchfab_model"
    },
    {
      "children": [
        2
      ],
      "name": "root"
    },
    {
      "children": [
        3,
        7
      ],
      "matrix": [
        1.0,
        0.0,
        0.0,
        0.0,
        0.0,
        2.220446049250313e-16,
        1.0,
        0.0,
        0.0,
        -1.0,
        2.220446049250313e-16,
        0.0,
        0.0,
        0.0,
        0.0,
        1.0
      ],
      "name": "GLTF_SceneRootNode"
    },
    {
      "children": [
        4,
        5,
        6
      ],
      "matrix": [
        0.9995935866713098,
        0.028507218131317815,
        0.0,
        0.0,
        -0.028507218131317815,
        0.9995935866713098,
        0.0,
        0.0,
        0.0,
        0.0,
        1.0,
        0.0,
        0.0,
        -0.14506234228610992,
        0.0,
        1.0
      ],
      "name": "CRT_R_1"
    },
    {
      "mesh": 0,
      "name": "Object_4"
    },
    {
      "mesh": 1,
      "name": "Object_5"
    },
    {
      "mesh": 2,
      "name": "Object_6"
    },
    {
      "children": [
        8,
        9,
        10
      ],
      "matrix": [
        9.878877572883242e-11,
        -1.551702474790489e-11,
        -0.0,
        0.0,
        1.551702474790489e-11,
        9.878877572883242e-11,
        0.0,
        0.0,
        0.0,
        -0.0,
        1.000000013351432e-10,
        0.0,
        0.0,
        -0.14506234228610992,
        0.0,
        1.0
      ],
      "name": "CRT_U_2"
    },
    {
      "mesh": 3,
      "name": "Object_8"
    },
    {
      "mesh": 4,
      "name": "Object_9"
    },
    {
      "mesh": 5,
      "name": "Object_10"
    }
  ],
  "scene": 0,
  "scenes": [
    {
      "name": "Sketchfab_Scene",
      "nodes": [
        0
      ]
    }
  ]
}
